<?xml version="1.0" encoding="utf-8"?>
<!-- Generator: Adobe Illustrator 28.0.0, SVG Export Plug-In . SVG Version: 6.00 Build 0)  -->
<svg version="1.1" xmlns="http://www.w3.org/2000/svg" x="0px" y="0px"
     viewBox="0 0 1200 1200" style="enable-background:new 0 0 1200 1200;" xml:space="preserve">
<style type="text/css">
	.st0{display:none;}
	.st1{display:inline;fill:#F56A00;}
	.st2{display:inline;fill:#663894;}
	.st3{display:inline;fill:#4AA82D;}
	.st4{display:inline;fill:#EF5E82;}
	.st5{display:inline;fill:#00005C;}
	.st6{display:inline;fill:#3DC7FF;}
	.st7{fill:#0073E6;}
</style>
    <g id="Atos_Orange" class="st0">
	<path id="Atos_Curve_00000116934662661430230760000018103741226868956853_" class="st1" d="M0,1200h486.5
		c0-393.4,320.1-713.5,713.5-713.5V0C538.3,0,0,538.3,0,1200"/>
</g>
    <g id="Atos_Purple" class="st0">
	<path id="Atos_Curve_00000134966692433835580890000012114843967565661602_" class="st2" d="M0,1200h486.5
		c0-393.4,320.1-713.5,713.5-713.5V0C538.3,0,0,538.3,0,1200"/>
</g>
    <g id="Atos_Green" class="st0">
	<path id="Atos_Curve_00000095296807694571172680000008795426826195063959_" class="st3" d="M0,1200h486.5
		c0-393.4,320.1-713.5,713.5-713.5V0C538.3,0,0,538.3,0,1200"/>
</g>
    <g id="Atos_Pink" class="st0">
	<path id="Atos_Curve_00000013174927409628811690000003765251535411202976_" class="st4" d="M0,1200h486.5
		c0-393.4,320.1-713.5,713.5-713.5V0C538.3,0,0,538.3,0,1200"/>
</g>
    <g id="Atos_Deep_Blue" class="st0">
	<path id="Atos_Curve_00000069359683966753469000000001950882110736299180_" class="st5" d="M0,1200h486.5
		c0-393.4,320.1-713.5,713.5-713.5V0C538.3,0,0,538.3,0,1200"/>
</g>
    <g id="Atos_Light_Blue" class="st0">
	<path id="Atos_Curve_00000121275616766610152210000001947138469736197001_" class="st6" d="M0,1200h486.5
		c0-393.4,320.1-713.5,713.5-713.5V0C538.3,0,0,538.3,0,1200"/>
</g>
    <g id="Atos_Blue">
	<path id="Atos_Curve" class="st7" d="M0,1200h486.5c0-393.4,320.1-713.5,713.5-713.5V0C538.3,0,0,538.3,0,1200"/>
</g>
</svg>
